<?xml version="1.0" encoding="UTF-8"?>
<svg version="1.1" xmlns="http://www.w3.org/2000/svg" width="197" height="145">
<path d="M0 0 C65.01 0 130.02 0 197 0 C197 47.85 197 95.7 197 145 C131.99 145 66.98 145 0 145 C0 97.15 0 49.3 0 0 Z " fill="#221111" transform="translate(0,0)"/>
<path d="M0 0 C65.01 0 130.02 0 197 0 C197 47.85 197 95.7 197 145 C131.99 145 66.98 145 0 145 C0 97.15 0 49.3 0 0 Z M5 7 C4.69547898 9.38575848 4.69547898 9.38575848 4.74603271 12.20031738 C4.74039307 13.30243057 4.73475342 14.40454376 4.72894287 15.54005432 C4.73299133 16.75466843 4.73703979 17.96928253 4.74121094 19.22070312 C4.7377063 20.49550034 4.73420166 21.77029755 4.73059082 23.08372498 C4.72145406 26.58573373 4.72501632 30.08762497 4.73134899 33.58963585 C4.73640235 37.24957986 4.73171939 40.90951361 4.72857666 44.56945801 C4.72493507 50.71640841 4.72974115 56.86331079 4.73925781 63.01025391 C4.75014275 70.1232572 4.74661731 77.23614585 4.735605 84.34914637 C4.7265376 90.44938977 4.72524416 96.54959859 4.73048234 102.64984655 C4.73360506 106.29625167 4.73400314 109.94260284 4.72740936 113.58900452 C4.720575 117.65250471 4.7300397 121.71580634 4.74121094 125.77929688 C4.73716248 126.99391098 4.73311401 128.20852509 4.72894287 129.45994568 C4.73740234 131.11311546 4.73740234 131.11311546 4.74603271 132.79968262 C4.74678677 133.76128044 4.74754082 134.72287827 4.74831772 135.71361542 C4.78049942 138.19749352 4.78049942 138.19749352 7 140 C9.42907902 140.19730791 11.74422494 140.26934957 14.17443848 140.25396729 C15.29582018 140.25864726 15.29582018 140.25864726 16.43985605 140.26342177 C18.95802988 140.27143247 21.47596478 140.26506629 23.99414062 140.25878906 C25.79412478 140.26149757 27.59410782 140.2650577 29.39408875 140.26940918 C34.29273618 140.27855221 39.19129969 140.27498107 44.08994865 140.26865101 C49.207307 140.26360089 54.32465798 140.2682797 59.4420166 140.27142334 C68.03704117 140.27506588 76.63203142 140.27025635 85.22705078 140.26074219 C95.17568478 140.24985709 105.12423681 140.25338247 115.07286882 140.264395 C123.601964 140.27345969 132.13103445 140.27475717 140.66013288 140.26951766 C145.75970777 140.26639345 150.85924409 140.26600095 155.95881653 140.27259064 C160.75221929 140.2783516 165.54551598 140.27439021 170.33890724 140.26280212 C172.10220475 140.26014883 173.86551113 140.26093197 175.62880516 140.26532745 C178.02784606 140.27075807 180.42654281 140.26397934 182.82556152 140.25396729 C183.53041514 140.25842873 184.23526875 140.26289017 184.96148157 140.26748681 C188.92418515 140.33650691 188.92418515 140.33650691 192 138 C192.30452102 135.61424152 192.30452102 135.61424152 192.25396729 132.79968262 C192.25960693 131.69756943 192.26524658 130.59545624 192.27105713 129.45994568 C192.26700867 128.24533157 192.26296021 127.03071747 192.25878906 125.77929688 C192.2622937 124.50449966 192.26579834 123.22970245 192.26940918 121.91627502 C192.27854594 118.41426627 192.27498368 114.91237503 192.26865101 111.41036415 C192.26359765 107.75042014 192.26828061 104.09048639 192.27142334 100.43054199 C192.27506493 94.28359159 192.27025885 88.13668921 192.26074219 81.98974609 C192.24985725 74.8767428 192.25338269 67.76385415 192.264395 60.65085363 C192.2734624 54.55061023 192.27475584 48.45040141 192.26951766 42.35015345 C192.26639494 38.70374833 192.26599686 35.05739716 192.27259064 31.41099548 C192.279425 27.34749529 192.2699603 23.28419366 192.25878906 19.22070312 C192.26486176 17.39878197 192.26486176 17.39878197 192.27105713 15.54005432 C192.26259766 13.88688454 192.26259766 13.88688454 192.25396729 12.20031738 C192.25321323 11.23871956 192.25245918 10.27712173 192.25168228 9.28638458 C192.21950058 6.80250648 192.21950058 6.80250648 190 5 C187.57092098 4.80269209 185.25577506 4.73065043 182.82556152 4.74603271 C182.07797372 4.74291273 181.33038592 4.73979275 180.56014395 4.73657823 C178.04197012 4.72856753 175.52403522 4.73493371 173.00585938 4.74121094 C171.20587522 4.73850243 169.40589218 4.7349423 167.60591125 4.73059082 C162.70726382 4.72144779 157.80870031 4.72501893 152.91005135 4.73134899 C147.792693 4.73639911 142.67534202 4.7317203 137.5579834 4.72857666 C128.96295883 4.72493412 120.36796858 4.72974365 111.77294922 4.73925781 C101.82431522 4.75014291 91.87576319 4.74661753 81.92713118 4.735605 C73.398036 4.72654031 64.86896555 4.72524283 56.33986712 4.73048234 C51.24029223 4.73360655 46.14075591 4.73399905 41.04118347 4.72740936 C36.24778071 4.7216484 31.45448402 4.72560979 26.66109276 4.73719788 C24.89779525 4.73985117 23.13448887 4.73906803 21.37119484 4.73467255 C18.97215394 4.72924193 16.57345719 4.73602066 14.17443848 4.74603271 C13.46958486 4.74157127 12.76473125 4.73710983 12.03851843 4.73251319 C8.07581485 4.66349309 8.07581485 4.66349309 5 7 Z " fill="#000000" transform="translate(0,0)"/>
<path d="M0 0 C3.875 1.875 3.875 1.875 5 3 C4.96994237 7.02020749 4.45122216 11.0087349 4 15 C3.92297852 15.72654785 3.84595703 16.4530957 3.76660156 17.20166016 C1.96550646 33.33335538 1.96550646 33.33335538 -4.671875 39.46875 C-5.32929687 40.22671875 -5.32929687 40.22671875 -6 41 C-5.55660239 44.2938108 -4.61433083 46.03511138 -2.859375 48.79150391 C-0.9758494 53.63195066 -3.07903603 59.4215667 -4 64.375 C-4.19722656 65.59445313 -4.39445312 66.81390625 -4.59765625 68.0703125 C-5.90360779 75.23349579 -7.01021991 79.61917679 -13 84 C-13.66 84 -14.32 84 -15 84 C-17.40789342 81.38571572 -18.89133105 79.56664398 -19.140625 75.97265625 C-18.9012988 73.28023655 -18.4633978 70.66370388 -18 68 C-17.80603985 66.59540239 -17.6148375 65.19042232 -17.42578125 63.78515625 C-17.20273514 62.2731092 -16.97746329 60.76138886 -16.75 59.25 C-16.65323975 58.52901123 -16.55647949 57.80802246 -16.45678711 57.06518555 C-15.5770816 51.71709535 -13.87076382 48.8226798 -10 45 C-9.34 45 -8.68 45 -8 45 C-8 44.34 -8 43.68 -8 43 C-8.61875 43.495 -9.2375 43.99 -9.875 44.5 C-12 46 -12 46 -14 46 C-14 46.66 -14 47.32 -14 48 C-18.48395303 48.12379245 -22.96699602 48.21442571 -27.45214844 48.2746582 C-28.9770643 48.29977103 -30.50186015 48.33386883 -32.02636719 48.37719727 C-34.22100426 48.43800044 -36.4140481 48.46623887 -38.609375 48.48828125 C-39.92905273 48.51446533 -41.24873047 48.54064941 -42.60839844 48.56762695 C-46 48 -46 48 -48.46191406 45.46948242 C-48.96948242 44.65455322 -49.47705078 43.83962402 -50 43 C-48.49082754 39.1584701 -46.42753069 37.26041255 -43 35 C-39.69433594 34.54589844 -39.69433594 34.54589844 -35.984375 34.609375 C-35.32794006 34.61503479 -34.67150513 34.62069458 -33.99517822 34.62652588 C-31.91268726 34.64878624 -29.83196379 34.69893842 -27.75 34.75 C-26.33596257 34.77008024 -24.92189787 34.78832834 -23.5078125 34.8046875 C-20.00466955 34.84910517 -16.50253154 34.9202576 -13 35 C-12.67 35 -12.34 35 -12 35 C-11.88519287 34.11739502 -11.77038574 33.23479004 -11.65209961 32.32543945 C-11.20867628 29.03171612 -10.73785262 25.7443319 -10.24829102 22.45727539 C-10.04261906 21.03792889 -9.84778215 19.61696617 -9.66430664 18.19458008 C-8.12298199 6.33344295 -8.12298199 6.33344295 -5.25439453 2.92724609 C-3.31640625 1.54296875 -3.31640625 1.54296875 0 0 Z " fill="#322121" transform="translate(85,30)"/>
<path d="M0 0 C11.22 0 22.44 0 34 0 C34.495 0.99 34.495 0.99 35 2 C34.34 2 33.68 2 33 2 C32.94666504 2.60005859 32.89333008 3.20011719 32.83837891 3.81835938 C32.16473724 11.00201859 31.10213584 18.0861579 29.9296875 25.203125 C29.795625 26.05390625 29.6615625 26.9046875 29.5234375 27.78125 C29.39888184 28.54501953 29.27432617 29.30878906 29.14599609 30.09570312 C28.82915718 32.08687867 28.82915718 32.08687867 30 34 C29.01 33.67 28.02 33.34 27 33 C24.6444552 32.84820986 22.28524877 32.75100711 19.92578125 32.68359375 C19.2419487 32.66281265 18.55811615 32.64203156 17.8535614 32.62062073 C15.6733079 32.55533846 13.49293595 32.49633983 11.3125 32.4375 C9.83267014 32.39429447 8.35285217 32.35067953 6.87304688 32.30664062 C3.24882378 32.19967917 -0.37553189 32.09835177 -4 32 C-4.27287448 24.97348203 -3.22219854 18.40693063 -2 11.5 C-1.34 7.705 -0.68 3.91 0 0 Z " fill="#221111" transform="translate(45,33)"/>
<path d="M0 0 C0.70744354 0.00141495 1.41488708 0.0028299 2.14376831 0.00428772 C4.40578419 0.00989025 6.66770148 0.02244307 8.9296875 0.03515625 C10.46223815 0.04017093 11.99479036 0.04473389 13.52734375 0.04882812 C17.28649638 0.05986048 21.04557522 0.07712673 24.8046875 0.09765625 C24.67827881 0.78802979 24.55187012 1.47840332 24.42163086 2.18969727 C23.85053814 5.34459437 23.29624271 8.50222443 22.7421875 11.66015625 C22.54302734 12.74619141 22.34386719 13.83222656 22.13867188 14.95117188 C21.15772355 20.61313678 20.33528191 25.48929668 21.8046875 31.09765625 C22.4646875 31.75765625 23.1246875 32.41765625 23.8046875 33.09765625 C23.4746875 34.08765625 23.1446875 35.07765625 22.8046875 36.09765625 C18.8046875 31.34765625 18.8046875 31.34765625 18.8046875 29.09765625 C14.46248871 29.16662238 10.12121476 29.25463004 5.77978516 29.36010742 C4.30365612 29.3933098 2.82740156 29.42135642 1.35107422 29.4440918 C-0.77430582 29.47772576 -2.89854054 29.53004144 -5.0234375 29.5859375 C-6.3012207 29.61212158 -7.57900391 29.63830566 -8.89550781 29.6652832 C-12.3160518 30.11347671 -13.72551292 30.76113881 -16.1953125 33.09765625 C-16.1953125 32.10765625 -16.1953125 31.11765625 -16.1953125 30.09765625 C-15.2053125 29.76765625 -14.2153125 29.43765625 -13.1953125 29.09765625 C-13.15792969 28.50082031 -13.12054688 27.90398437 -13.08203125 27.2890625 C-12.61505568 21.12681626 -11.78633122 15.0623842 -10.7578125 8.97265625 C-10.63559326 8.21412354 -10.51337402 7.45559082 -10.38745117 6.67407227 C-10.05974292 4.80172745 -9.63548354 2.94679585 -9.1953125 1.09765625 C-6.23720774 -0.38139613 -3.240597 -0.02425278 0 0 Z " fill="#241111" transform="translate(46.1953125,78.90234375)"/>
<path d="M0 0 C1.34888732 0.00015905 2.69778075 0.00584927 4.04663086 0.01586914 C5.10991859 0.01799156 5.10991859 0.01799156 6.19468689 0.02015686 C8.46699173 0.02577096 10.73919936 0.03832576 13.01147461 0.05102539 C14.54858257 0.05603858 16.08569206 0.0606018 17.62280273 0.06469727 C21.39823103 0.07574497 25.17358632 0.09301898 28.94897461 0.11352539 C28.35201295 6.81177328 27.49099397 13.41862443 26.38647461 20.05102539 C26.11219722 21.70561966 25.83997089 23.3605556 25.57006836 25.01586914 C25.45074951 25.73250732 25.33143066 26.44914551 25.20849609 27.1875 C24.88220572 29.28514204 24.88220572 29.28514204 24.94897461 32.11352539 C24.28897461 31.45352539 23.62897461 30.79352539 22.94897461 30.11352539 C19.88846612 29.81780762 19.88846612 29.81780762 16.29663086 29.88305664 C15.64069443 29.88351486 14.984758 29.88397308 14.3089447 29.88444519 C12.92111402 29.88746699 11.53328671 29.8953512 10.14550781 29.90771484 C8.02323352 29.9259245 5.90139685 29.92822481 3.77905273 29.92797852 C-3.23800274 29.77477368 -3.23800274 29.77477368 -10.05102539 31.11352539 C-10.05102539 30.45352539 -10.05102539 29.79352539 -10.05102539 29.11352539 C-9.39102539 29.11352539 -8.73102539 29.11352539 -8.05102539 29.11352539 C-7.99495117 28.21827148 -7.99495117 28.21827148 -7.93774414 27.30493164 C-7.47003495 21.13300451 -6.61589767 15.08092835 -5.55102539 8.98852539 C-5.42042725 8.22999268 -5.2898291 7.47145996 -5.15527344 6.68994141 C-3.98052648 0.14811113 -3.98052648 0.14811113 0 0 Z " fill="#221111" transform="translate(120.051025390625,78.886474609375)"/>
<path d="M0 0 C10.56 0 21.12 0 32 0 C32 7.88255872 32 7.88255872 31.16015625 12.0234375 C30.98419922 12.89871094 30.80824219 13.77398437 30.62695312 14.67578125 C30.44068359 15.56652344 30.25441406 16.45726563 30.0625 17.375 C29.88009766 18.28894531 29.69769531 19.20289062 29.50976562 20.14453125 C28.13715278 26.86284722 28.13715278 26.86284722 27 28 C24.78144736 28.08783542 22.56011504 28.10694609 20.33984375 28.09765625 C19.34314415 28.09553383 19.34314415 28.09553383 18.3263092 28.09336853 C16.19666101 28.08775518 14.06711661 28.07520054 11.9375 28.0625 C10.49674631 28.05748671 9.05599097 28.05292351 7.61523438 28.04882812 C4.07678898 28.03778145 0.53840461 28.02050792 -3 28 C-3.75418065 23.64172862 -4.11173592 20.06028737 -3.22265625 15.72265625 C-3.05773682 14.88742432 -2.89281738 14.05219238 -2.72290039 13.19165039 C-2.50496826 12.15903076 -2.28703613 11.12641113 -2.0625 10.0625 C-1.381875 6.741875 -0.70125 3.42125 0 0 Z " fill="#221111" transform="translate(124,36)"/>
<path d="M0 0 C2.16894531 2.05932617 2.16894531 2.05932617 4 5 C3.99511719 8.3215332 3.99511719 8.3215332 3.296875 12.05078125 C3.18023499 12.70958786 3.06359497 13.36839447 2.94342041 14.04716492 C2.56760613 16.14034611 2.15942931 18.22566143 1.75 20.3125 C1.48872299 21.73463045 1.2295842 23.15715552 0.97265625 24.58007812 C0.33980557 28.05829892 -0.32219812 31.53022451 -1 35 C-1.66 35 -2.32 35 -3 35 C-3 35.66 -3 36.32 -3 37 C-2.01 36.34 -1.02 35.68 0 35 C4.24586315 34.5238445 8.50003016 34.50108263 12.76904297 34.46459961 C14.86245941 34.43766137 16.95082474 34.3627617 19.04296875 34.28710938 C28.83939028 34.09941308 28.83939028 34.09941308 32.05957031 36.59814453 C33.4453125 38.53515625 33.4453125 38.53515625 35 42 C29.93746363 47.06253637 28.64246056 48.16663278 21.5703125 48.23828125 C20.45110916 48.25038887 20.45110916 48.25038887 19.30929565 48.26274109 C17.72721694 48.27659541 16.14510816 48.28731152 14.56298828 48.29516602 C12.14167705 48.31238143 9.72173031 48.35625232 7.30078125 48.40039062 C5.76563507 48.41051702 4.23047725 48.4190333 2.6953125 48.42578125 C1.97022491 48.44328934 1.24513733 48.46079742 0.49807739 48.47883606 C-1.55419922 48.4699707 -1.55419922 48.4699707 -5 48 C-6.98095703 45.97338867 -6.98095703 45.97338867 -8 44 C-7 42 -6 40 -5 38 C-5.99 38.66 -6.98 39.32 -8 40 C-11 40 -11 40 -12.72216797 38.38964844 C-15.34812963 33.47888941 -13.08683041 27.49731926 -12.125 22.25 C-11.93164062 20.99960938 -11.73828125 19.74921875 -11.5390625 18.4609375 C-10.47877251 12.49049503 -8.06527467 0 0 0 Z " fill="#322121" transform="translate(113,73)"/>
<path d="M0 0 C0.7375502 0.00182281 1.4751004 0.00364563 2.23500061 0.00552368 C2.99813065 -0.00304657 3.76126068 -0.01161682 4.54751587 -0.02044678 C6.16050755 -0.03192524 7.77360276 -0.03293962 9.38661194 -0.02426147 C11.85284897 -0.01794215 14.31427981 -0.06483364 16.77992249 -0.11557007 C18.34827581 -0.12011663 19.91664203 -0.12152277 21.48500061 -0.11947632 C22.58828957 -0.14710556 22.58828957 -0.14710556 23.71386719 -0.17529297 C25.80702209 -0.13754272 25.80702209 -0.13754272 29.42640686 0.60708618 C31.92274475 3.65249634 31.92274475 3.65249634 33.42640686 6.60708618 C30.00158247 10.41069958 26.8950622 12.40841802 21.76625061 13.10220337 C17.48227241 13.27183897 13.20897846 13.13154379 8.92640686 12.98208618 C7.42125196 12.95194419 5.91603883 12.92457584 4.41078186 12.90005493 C0.74810006 12.83440348 -2.91236925 12.73112 -6.57359314 12.60708618 C-6.71982117 13.47510864 -6.86604919 14.3431311 -7.01670837 15.23745728 C-7.56021738 18.45453039 -8.10657998 21.67110192 -8.65489197 24.88735962 C-8.8917174 26.28006848 -9.12740089 27.67297202 -9.36192322 29.06607056 C-9.69901541 31.06724363 -10.04019418 33.06768303 -10.38218689 35.06802368 C-10.58642273 36.27249146 -10.79065857 37.47695923 -11.00108337 38.71792603 C-11.57359314 41.60708618 -11.57359314 41.60708618 -12.57359314 43.60708618 C-13.23359314 43.60708618 -13.89359314 43.60708618 -14.57359314 43.60708618 C-14.57359314 44.26708618 -14.57359314 44.92708618 -14.57359314 45.60708618 C-16.22359314 46.26708618 -17.87359314 46.92708618 -19.57359314 47.60708618 C-22.05786527 45.56099658 -23.25289952 44.47617922 -24.57359314 41.60708618 C-24.6375616 36.95742712 -23.70727012 32.58286508 -22.76109314 28.04458618 C-22.55033142 26.82577759 -22.3395697 25.60696899 -22.12242126 24.35122681 C-20.19705861 14.4640828 -20.19705861 14.4640828 -16.54234314 11.42739868 C-15.56265564 10.82669556 -14.58296814 10.22599243 -13.57359314 9.60708618 C-10.09397478 6.36259934 -10.09397478 6.36259934 -7.417099 2.49234009 C-5.0729527 0.09510824 -3.26895563 0.09063475 0 0 Z " fill="#322121" transform="translate(52.57359313964844,21.392913818359375)"/>
<path d="M0 0 C2.1236061 0.03016556 4.23529978 -0.02026992 6.3581543 -0.07739258 C16.18262875 -0.14307176 16.18262875 -0.14307176 19.49536133 2.81469727 C20.76748137 4.84122969 21.69155382 6.69545341 22.42651367 8.9675293 C18.49049673 12.879183 16.20121899 14.53713479 10.41043091 14.53401184 C9.67581635 14.50820541 8.94120178 14.48239899 8.18432617 14.45581055 C7.41595428 14.44873581 6.6475824 14.44166107 5.85592651 14.43437195 C3.4200995 14.40655226 0.98663664 14.34384532 -1.44848633 14.2800293 C-3.10730711 14.25493 -4.76616421 14.23211968 -6.42504883 14.21166992 C-10.47542831 14.15676748 -14.5240576 14.07058837 -18.57348633 13.9675293 C-19.56348633 11.9875293 -20.55348633 10.0075293 -21.57348633 7.9675293 C-15.58322416 0.47878639 -9.11080377 -0.16669341 0 0 Z " fill="#F36262" transform="translate(47.573486328125,107.032470703125)"/>
<path d="M0 0 C2.0756947 0.00633428 4.14571055 -0.04066304 6.22070312 -0.09130859 C15.99182961 -0.10088813 15.99182961 -0.10088813 19.13085938 2.01123047 C20.51757812 3.67041016 20.51757812 3.67041016 22.08007812 6.63134766 C20.79945328 8.33884745 19.46240256 10.00508362 18.08007812 11.63134766 C17.42007813 11.63134766 16.76007813 11.63134766 16.08007812 11.63134766 C16.08007812 12.29134766 16.08007812 12.95134766 16.08007812 13.63134766 C11.59612509 13.75514011 7.1130821 13.84577337 2.62792969 13.90600586 C1.10301382 13.93111869 -0.42178203 13.96521648 -1.94628906 14.00854492 C-4.14092614 14.0693481 -6.33396997 14.09758653 -8.52929688 14.11962891 C-9.84897461 14.14581299 -11.16865234 14.17199707 -12.52832031 14.19897461 C-15.91992188 13.63134766 -15.91992188 13.63134766 -18.38183594 11.10083008 C-18.8894043 10.28590088 -19.39697266 9.47097168 -19.91992188 8.63134766 C-16.30223611 -0.57730703 -8.59406805 -0.05498574 0 0 Z " fill="#F46363" transform="translate(54.919921875,64.36865234375)"/>
<path d="M0 0 C2.1412491 0.03992035 4.27636385 0.0206135 6.41772461 -0.00512695 C7.78558706 0.00242775 9.1534359 0.01337683 10.52124023 0.02807617 C11.75447021 0.04008057 12.9877002 0.05208496 14.25830078 0.06445312 C17.44702148 0.72729492 17.44702148 0.72729492 19.87988281 3.27099609 C20.39703857 4.08157471 20.91419434 4.89215332 21.44702148 5.72729492 C19.98605455 9.13621777 18.34531249 11.39408518 15.44702148 13.72729492 C11.0479342 14.4993279 6.63272032 14.42828855 2.17529297 14.41357422 C0.01782399 14.41479024 -2.13287647 14.47456944 -4.28930664 14.5378418 C-14.33911328 14.66219558 -14.33911328 14.66219558 -17.6394043 12.12036133 C-19.02563477 10.18432617 -19.02563477 10.18432617 -20.55297852 6.72729492 C-14.66038911 -0.1885038 -8.62049039 -0.18023666 0 0 Z " fill="#F46363" transform="translate(133.552978515625,64.272705078125)"/>
<path d="M0 0 C0.76550171 -0.00524185 1.53100342 -0.0104837 2.31970215 -0.0158844 C3.93691801 -0.02230307 5.55418056 -0.02096955 7.17138672 -0.01245117 C9.64765347 -0.00393581 12.12161719 -0.03270903 14.59765625 -0.06445312 C16.16927014 -0.06606511 17.74088812 -0.06548766 19.3125 -0.0625 C20.05318726 -0.07373398 20.79387451 -0.08496796 21.55700684 -0.09654236 C26.7052635 -0.02663156 26.7052635 -0.02663156 29.14648438 2.46459961 C29.47970703 3.11436768 29.81292969 3.76413574 30.15625 4.43359375 C28.64542665 8.27932592 26.5895443 10.17260121 23.15625 12.43359375 C19.71459961 12.96704102 19.71459961 12.96704102 15.80859375 13 C15.11488174 13.00619858 14.42116974 13.01239716 13.70643616 13.01878357 C12.24660642 13.02585841 10.7866956 13.02274847 9.3269043 13.01000977 C7.09598606 12.99610768 4.86923842 13.03027833 2.63867188 13.06835938 C1.21614481 13.06931038 -0.20638749 13.06745276 -1.62890625 13.0625 C-3.56068726 13.06358765 -3.56068726 13.06358765 -5.53149414 13.06469727 C-8.84375 12.43359375 -8.84375 12.43359375 -11.29467773 9.89428711 C-11.80587158 9.0822583 -12.31706543 8.27022949 -12.84375 7.43359375 C-9.88466754 0.83256366 -7.10068066 -0.02814282 0 0 Z " fill="#F56363" transform="translate(133.84375,21.56640625)"/>
<path d="M0 0 C2.375 1.375 2.375 1.375 4.375 4.375 C4.52137878 8.06235112 3.86571563 11.725049 3.375 15.375 C3.28589355 16.09365234 3.19678711 16.81230469 3.10498047 17.55273438 C2.80296413 19.93503128 2.46798455 22.31077902 2.125 24.6875 C2.02807861 25.45199463 1.93115723 26.21648926 1.83129883 27.00415039 C0.97480478 32.51982742 -0.64558235 35.43237204 -4.625 39.375 C-6.9375 40.25 -6.9375 40.25 -8.625 40.375 C-9.285 39.055 -9.945 37.735 -10.625 36.375 C-12.11 36.87 -12.11 36.87 -13.625 37.375 C-12.737919 30.96423938 -11.72454937 24.57556992 -10.6875 18.1875 C-10.51798828 17.10791016 -10.34847656 16.02832031 -10.17382812 14.91601562 C-10.00431641 13.87767578 -9.83480469 12.83933594 -9.66015625 11.76953125 C-9.5094165 10.82956299 -9.35867676 9.88959473 -9.20336914 8.92114258 C-8.40520167 5.40738635 -7.31590903 3.08973348 -4.8125 0.5 C-2.625 -0.625 -2.625 -0.625 0 0 Z " fill="#322121" transform="translate(164.625,29.625)"/>
<path d="M0 0 C2.87381736 2.76272205 3.97391904 4.20378123 4.10620117 8.2421875 C3.92033447 9.44101563 3.73446777 10.63984375 3.54296875 11.875 C3.44293045 12.52194824 3.34289215 13.16889648 3.23982239 13.83544922 C3.02168805 15.19887876 2.79150387 16.56042852 2.55004883 17.91992188 C2.18937624 19.98923534 1.88669054 22.06158851 1.58789062 24.140625 C-0.1714732 35.19117465 -0.1714732 35.19117465 -4.51171875 38.4375 C-8 40 -8 40 -11 40 C-12.72216797 38.38964844 -12.72216797 38.38964844 -14 36 C-13.98824611 31.35016009 -12.96200016 26.81630088 -12.125 22.25 C-11.93164062 20.99960938 -11.73828125 19.74921875 -11.5390625 18.4609375 C-10.47877251 12.49049503 -8.06527467 0 0 0 Z " fill="#F76464" transform="translate(113,73)"/>
<path d="M0 0 C3.46233782 1.15411261 4.24800089 1.86310321 6 5 C6.00512695 7.66967773 6.00512695 7.66967773 5.48828125 10.68359375 C5.30716797 11.77607422 5.12605469 12.86855469 4.93945312 13.99414062 C4.73255859 15.13044922 4.52566406 16.26675781 4.3125 17.4375 C4.12494141 18.56994141 3.93738281 19.70238281 3.74414062 20.86914062 C2.36890836 28.88896591 1.340791 34.45180787 -5 40 C-5.66 40 -6.32 40 -7 40 C-9.40789342 37.38571572 -10.89133105 35.56664398 -11.140625 31.97265625 C-10.9012988 29.28023655 -10.4633978 26.66370388 -10 24 C-9.80603985 22.59540239 -9.6148375 21.19042232 -9.42578125 19.78515625 C-9.20273514 18.2731092 -8.97746329 16.76138886 -8.75 15.25 C-8.65323975 14.52901123 -8.55647949 13.80802246 -8.45678711 13.06518555 C-7.5736571 7.69627639 -5.83026181 4.8778427 -2 1 C-1.34 0.67 -0.68 0.34 0 0 Z " fill="#F76464" transform="translate(77,74)"/>
<path d="M0 0 C2.00798449 2.02649126 2.94136423 3.29382142 3.1796875 6.1640625 C2.81434784 9.1148828 2.42883984 12.05749896 2 15 C1.90944336 15.72251953 1.81888672 16.44503906 1.72558594 17.18945312 C1.42445979 19.58852411 1.09099083 21.98129274 0.75 24.375 C0.65315918 25.1479541 0.55631836 25.9209082 0.45654297 26.71728516 C-0.35593804 31.96812939 -1.7269866 34.5427437 -6 38 C-6.99 38.66 -7.98 39.32 -9 40 C-12.26272086 36.68850902 -13.97674024 34.72878854 -14.04052734 29.98779297 C-13.5800051 26.42404337 -12.9284065 22.95350668 -12.1875 19.4375 C-11.97673828 18.23158203 -11.76597656 17.02566406 -11.54882812 15.78320312 C-8.45493684 0 -8.45493684 0 0 0 Z " fill="#F76464" transform="translate(121,30)"/>
<path d="M0 0 C3.48811568 1.16270523 4.27288586 1.8087656 6 5 C5.98983913 9.34038432 5.20303798 13.57301331 4.47460938 17.84448242 C4.12740155 19.92312255 3.83194299 22.00490014 3.5390625 24.09179688 C1.80801201 35.21616928 1.80801201 35.21616928 -2.5703125 38.44140625 C-6 40 -6 40 -8 40 C-9.82785365 38.04970639 -10.93016134 36.75607938 -11.1796875 34.0546875 C-10.80393285 31.36659658 -10.41273075 28.68274985 -10 26 C-9.83133872 24.541896 -9.66483517 23.08354148 -9.5 21.625 C-8.38817722 12.75248872 -7.46130576 5.84639301 0 0 Z " fill="#F76363" transform="translate(32,73)"/>
<path d="M0 0 C1.95187162 2.16874625 2.96015927 3.96623797 3.07421875 6.92578125 C2.83500659 9.64154289 2.41854807 12.3055968 2 15 C1.83108246 16.46849283 1.66460584 17.93726761 1.5 19.40625 C-0.34342166 34.22528652 -0.34342166 34.22528652 -6.57421875 39.1015625 C-7.27998047 39.54628906 -7.27998047 39.54628906 -8 40 C-12.875 35.375 -12.875 35.375 -14 32 C-13.61512563 27.50097901 -12.77194851 23.0717932 -12 18.625 C-11.72349609 16.77648437 -11.72349609 16.77648437 -11.44140625 14.890625 C-9.6734547 4.76608258 -9.6734547 4.76608258 -5.4375 1.6484375 C-2 0 -2 0 0 0 Z " fill="#322121" transform="translate(158,74)"/>
<path d="M0 0 C1.94711671 2.04028018 2.94353104 3.31991735 3.1796875 6.1640625 C3.07914063 6.97617187 2.97859375 7.78828125 2.875 8.625 C2.75898437 9.57503906 2.64296875 10.52507813 2.5234375 11.50390625 C-0.5645933 32.1291866 -0.5645933 32.1291866 -2 35 C-2.66 35 -3.32 35 -4 35 C-4 35.66 -4 36.32 -4 37 C-5.65 37.66 -7.3 38.32 -9 39 C-11.47526444 36.9545719 -12.67526897 35.85957413 -14 33 C-14.08948701 28.37136161 -13.17912904 24.02047757 -12.25 19.5 C-12.04761719 18.28957031 -11.84523438 17.07914063 -11.63671875 15.83203125 C-10.36525352 9.22767758 -9.16639032 4.88431027 -3.61230469 0.83789062 C-2 0 -2 0 0 0 Z " fill="#F86464" transform="translate(42,30)"/>
<path d="M0 0 C2.35055139 1.54001643 2.90737836 2.76535851 3.9375 5.375 C4 8 4 8 2.4375 10.8125 C0 13 0 13 -3 13.625 C-6 13 -6 13 -8.4375 10.8125 C-10 8 -10 8 -9.9375 5.375 C-7.88828636 0.18365877 -5.54148729 -0.69268591 0 0 Z " fill="#322121" transform="translate(90,109)"/>
<path d="M0 0 C2.83171242 2.01200619 3.84987863 3.12071767 4.4375 6.5625 C4 9 4 9 2.9375 10.75 C-0.00322221 12.64724014 -2.5400239 12.87642942 -6 13 C-7.9375 12 -7.9375 12 -9 10 C-9.63316583 4.09045226 -9.63316583 4.09045226 -7.875 1.0625 C-5.06487736 -0.52990283 -3.17235276 -0.45319325 0 0 Z " fill="#F16262" transform="translate(168,109)"/>
<path d="M0 0 C0.66 0.99 1.32 1.98 2 3 C-0.97 5.475 -0.97 5.475 -4 8 C-3.67 8.598125 -3.34 9.19625 -3 9.8125 C-2 12 -2 12 -2 15 C-4.5 12.75 -4.5 12.75 -7 10 C-7 8.68 -7 7.36 -7 6 C-5.35 5.34 -3.7 4.68 -2 4 C-2 3.34 -2 2.68 -2 2 C-1.34 2 -0.68 2 0 2 C0 1.34 0 0.68 0 0 Z " fill="#3B1A1A" transform="translate(40,63)"/>
</svg>
